<svg width="18" height="17" viewBox="0 0 18 17" fill="none" xmlns="http://www.w3.org/2000/svg">
<path d="M8.12769 0.483131C8.34586 0.021262 9.00298 0.0212631 9.22115 0.483132L11.3023 4.88894C11.3904 5.07554 11.5676 5.2043 11.7723 5.23046L16.6056 5.84825C17.1123 5.91301 17.3153 6.53797 16.9435 6.88818L13.3964 10.2289C13.2462 10.3704 13.1785 10.5787 13.2169 10.7815L14.1229 15.5691C14.2179 16.071 13.6862 16.4573 13.2383 16.2118L8.96493 13.8707C8.78395 13.7715 8.56489 13.7715 8.3839 13.8707L4.11058 16.2118C3.6626 16.4573 3.13098 16.071 3.22596 15.5691L4.13198 10.7815C4.17035 10.5787 4.10266 10.3704 3.95243 10.2289L0.40535 6.88818C0.0335031 6.53797 0.236566 5.91301 0.743246 5.84825L5.57652 5.23046C5.78122 5.2043 5.95844 5.07554 6.04658 4.88894L8.12769 0.483131Z" fill="#FFBD59"/>
</svg>
